%%This is a Diagram example for Task 0

%%Diagram type

classDiagram

%%Nodes and Contents


class PresentationLayer {

+UserService
+PlaceService
+ReviewService
+AmenityService
}
class HBnBFacade {
+createUser()
+getPlaceDetails()
+submitReview()
+listAmenities()
}
class BusinessLogicLayer {
    +User
    +Place
    +Review
    +Amenity
}
class PersistenceLayer {
+UserRepository
+PlaceRepository
+ReviewRepository
+AmenityRepository
}


%%Element Display order and line labels

PresentationLayer --> HBnBFacade : uses
HBnBFacade --> BusinessLogicLayer : delegates
BusinessLogicLayer --> PersistenceLayer : accesses